M48
;Layer_Color=9474304
;FILE_FORMAT=2:5
INCH,LZ
;TYPE=PLATED
T1F00S00C0.02800
T2F00S00C0.03150
T3F00S00C0.03543
T4F00S00C0.03937
T5F00S00C0.04331
T6F00S00C0.04724
T7F00S00C0.05000
T8F00S00C0.05906
T9F00S00C0.06693
T10F00S00C0.07874
T11F00S00C0.12992
T12F00S00C0.15748
%
T01
X05195Y02295
X0567Y02625
Y02945
X0456Y02825
X04555Y0263
X0448Y03545
X04415Y03755
X0424Y03765
X04315Y03965
X04435
X04055Y03935
X04015Y03835
X0391Y03785
X0395Y03975
Y0417
X04015Y0464
X041Y04635
X0419Y03515
X0562Y03375
X04695Y05225
X04655Y05115
X0468Y05
X04675Y049
X0467Y048
X04675Y04695
X04305Y049
X04355Y05
X0442Y05115
X04475Y05225
X0458996Y0534004
X0395Y04735
T02
X06475Y0229
Y0249
X06995Y0281
Y0311
X06235Y0289
X06135
X06035
X06175Y0269
X0617Y02485
X0616Y02285
X0586
X0587Y02485
X05875Y0269
X0494Y0275
X0474
X0471Y0304
X0493Y03015
Y03115
X0513
Y03015
X0498842Y0241
X0479157Y0241
X0383Y02955
X03825Y03075
X03525
X0353Y02955
X02795Y03495
Y03695
X0279Y03795
X0259
X02575Y03695
Y03495
X02255Y0349658
X02255Y0369342
X02005Y03695
Y03495
X03245Y03425
X03255Y0321
X03555
X03545Y03425
X0468Y0345
X0488
X0493Y0322
X0513
X05235Y0352
X0524Y0367
Y03825
X0554
Y0367
X05535Y0352
X0575Y03725
X0605
X0601Y0346
X06015Y03235
X06065Y0407
X0567Y04125
X0554
X05415
X0529
X05165
Y04425
X0529
X05415
X0554
X0567
X04755Y0403
Y0383
X0471Y0324
X06315Y03235
X0631Y0346
X06265Y0407
X0548996Y056339
X0538996
X0528996
X0518996
X0508996
X0498996
X0488996
X0478996
X0468996
X0458996
X0448996
X0438996
X0428996
X0418996
X0408996
X0398996
X03445Y055
Y053
T03
X0493Y01245
X0503
X0513
X0523
X0737Y028
Y029
X07375Y03105
X05845Y03095
Y03045
Y02995
X03265Y0308
X03215
X03165
X05845Y03375
Y03425
Y03475
X07375Y03205
T04
X0207945Y0309008
X0226055
Y0334992
X0207945
X0719508Y0389445
Y0407555
Y0422445
Y0440555
Y0454445
X0745492
Y0440555
Y0422445
Y0407555
Y0389445
Y0472555
Y0486945
Y0505055
Y0519945
Y0538055
X0719508
Y0519945
Y0505055
Y0486945
Y0472555
X0310201Y0497484
X0300201
X0290201
X0280201
X0270201
X0260201
X0270437Y054276
X0280437
T05
X0417126Y0296614
Y031
X0432874Y0303307
Y0316693
X0417126Y0323386
T06
X0257909Y03
X0299091
X029859Y0321
X025741
T07
X06515Y03005
Y03105
X05275Y0252
Y0242
T08
X018313Y0512
X0202815
X0192972Y0531685
T09
X0434Y0198913
Y0273087
X0646913Y03405
X0721087
T10
X036189Y0172484
X0337Y02385
Y0273933
X0285945Y0172484
X021
Y0459492
X0285945
X036189
T11
X0377343Y0441342
X0672618
Y056339
X0377343
T12
X02095Y01355
X0737
X036189Y02065
X0285945
X021
Y0425437
X0285945Y0425476
X036189
X0737Y05655
X02095Y0555
M30
