%FSLAX25Y25*%
%MOIN*%
G70*
G01*
G75*
G04 Layer_Color=255*
%ADD10R,0.00906X0.07874*%
%ADD11R,0.07874X0.00906*%
%ADD12O,0.00906X0.07874*%
%ADD13C,0.01000*%
%ADD14C,0.01575*%
%ADD15C,0.03937*%
%ADD16C,0.02362*%
%ADD17C,0.01969*%
%ADD18C,0.07087*%
%ADD19C,0.06400*%
%ADD20C,0.06693*%
%ADD21R,0.06693X0.06693*%
%ADD22C,0.11811*%
%ADD23C,0.07087*%
%ADD24R,0.07087X0.07087*%
%ADD25C,0.05906*%
%ADD26R,0.05906X0.05906*%
%ADD27O,0.06299X0.08661*%
%ADD28C,0.09843*%
%ADD29R,0.05906X0.05906*%
%ADD30C,0.05315*%
%ADD31R,0.05315X0.05315*%
%ADD32R,0.11024X0.11024*%
%ADD33C,0.11024*%
%ADD34C,0.07000*%
%ADD35O,0.07874X0.03937*%
%ADD36O,0.07874X0.03937*%
%ADD37R,0.05315X0.05315*%
%ADD38O,0.03937X0.07874*%
%ADD39O,0.03937X0.07874*%
%ADD40C,0.07874*%
%ADD41R,0.07874X0.07874*%
%ADD42R,0.11024X0.11024*%
%ADD43C,0.05000*%
%ADD44C,0.12992*%
%ADD45C,0.02953*%
D18*
X226055Y334992D02*
D03*
X207945D02*
D03*
X226055Y309008D02*
D03*
X207945D02*
D03*
X719508Y440555D02*
D03*
Y422445D02*
D03*
X745492Y440555D02*
D03*
Y422445D02*
D03*
X719508Y472555D02*
D03*
Y454445D02*
D03*
X745492Y472555D02*
D03*
Y454445D02*
D03*
X719508Y505055D02*
D03*
Y486945D02*
D03*
X745492Y505055D02*
D03*
Y486945D02*
D03*
X719508Y538055D02*
D03*
Y519945D02*
D03*
X745492Y538055D02*
D03*
Y519945D02*
D03*
X719508Y407555D02*
D03*
Y389445D02*
D03*
X745492Y407555D02*
D03*
Y389445D02*
D03*
D19*
X699500Y311000D02*
D03*
Y281000D02*
D03*
X344500Y530000D02*
D03*
Y550000D02*
D03*
X474000Y275000D02*
D03*
X494000D02*
D03*
X605000Y372500D02*
D03*
X575000D02*
D03*
X471000Y324000D02*
D03*
Y304000D02*
D03*
X606500Y407000D02*
D03*
X626500D02*
D03*
X468000Y345000D02*
D03*
X488000D02*
D03*
X513000Y311500D02*
D03*
X493000D02*
D03*
X259000Y379500D02*
D03*
X279000D02*
D03*
X513000Y322000D02*
D03*
X493000D02*
D03*
X475500Y403000D02*
D03*
Y383000D02*
D03*
X279500Y349500D02*
D03*
Y369500D02*
D03*
X257500Y349500D02*
D03*
Y369500D02*
D03*
X647500Y229000D02*
D03*
Y249000D02*
D03*
X601500Y323500D02*
D03*
X631500D02*
D03*
X601000Y346000D02*
D03*
X631000D02*
D03*
X200500Y349500D02*
D03*
Y369500D02*
D03*
X616000Y228500D02*
D03*
X586000D02*
D03*
X354500Y342500D02*
D03*
X324500D02*
D03*
X524000Y367000D02*
D03*
X554000D02*
D03*
Y382500D02*
D03*
X524000D02*
D03*
X325500Y321000D02*
D03*
X355500D02*
D03*
X617000Y248500D02*
D03*
X587000D02*
D03*
X617500Y269000D02*
D03*
X587500D02*
D03*
X567000Y412500D02*
D03*
Y442500D02*
D03*
X382500Y307500D02*
D03*
X352500D02*
D03*
X383000Y295500D02*
D03*
X353000D02*
D03*
X541500Y442500D02*
D03*
Y412500D02*
D03*
X529000Y442500D02*
D03*
Y412500D02*
D03*
X516500Y442500D02*
D03*
Y412500D02*
D03*
X553500Y352000D02*
D03*
X523500D02*
D03*
X554000Y442500D02*
D03*
Y412500D02*
D03*
X513000Y301500D02*
D03*
X493000D02*
D03*
D20*
X417126Y296614D02*
D03*
X432874Y303307D02*
D03*
X417126Y310000D02*
D03*
X432874Y316693D02*
D03*
D21*
X417126Y323386D02*
D03*
D22*
X210000Y459492D02*
D03*
X285945D02*
D03*
X361890D02*
D03*
Y172484D02*
D03*
X285945D02*
D03*
X210000D02*
D03*
D23*
X548996Y563390D02*
D03*
X538996D02*
D03*
X528996D02*
D03*
X518996D02*
D03*
X508996D02*
D03*
X498996D02*
D03*
X488996D02*
D03*
X478996D02*
D03*
X468996D02*
D03*
X458996D02*
D03*
X448996D02*
D03*
X438996D02*
D03*
X428996D02*
D03*
X418996D02*
D03*
X408996D02*
D03*
D24*
X398996D02*
D03*
D25*
X493000Y124500D02*
D03*
X503000D02*
D03*
X513000D02*
D03*
X737500Y320500D02*
D03*
X737000Y290000D02*
D03*
D26*
X523000Y124500D02*
D03*
D27*
X310201Y497484D02*
D03*
X290201D02*
D03*
X280201D02*
D03*
X270201D02*
D03*
X260201D02*
D03*
X300201D02*
D03*
X270437Y542760D02*
D03*
X280437D02*
D03*
D28*
X337000Y238500D02*
D03*
Y273933D02*
D03*
X192972Y531685D02*
D03*
X202815Y512000D02*
D03*
D29*
X737500Y310500D02*
D03*
X737000Y280000D02*
D03*
D30*
X498842Y241000D02*
D03*
X225500Y369342D02*
D03*
D31*
X479157Y241000D02*
D03*
D32*
X434000Y273087D02*
D03*
D33*
Y198913D02*
D03*
X646913Y340500D02*
D03*
D34*
X651500Y310500D02*
D03*
Y300500D02*
D03*
X527500Y252000D02*
D03*
Y242000D02*
D03*
D35*
X584500Y347500D02*
D03*
Y337500D02*
D03*
Y309500D02*
D03*
Y299500D02*
D03*
D36*
Y342500D02*
D03*
Y304500D02*
D03*
D37*
X225500Y349658D02*
D03*
D38*
X623500Y289000D02*
D03*
X326500Y308000D02*
D03*
X316500D02*
D03*
D39*
X613500Y289000D02*
D03*
X603500D02*
D03*
X321500Y308000D02*
D03*
D40*
X298590Y321000D02*
D03*
X299091Y300000D02*
D03*
D41*
X257410Y321000D02*
D03*
X257909Y300000D02*
D03*
X183130Y512000D02*
D03*
D42*
X721087Y340500D02*
D03*
M02*
