%FSLAX25Y25*%
%MOIN*%
G70*
G01*
G75*
G04 Layer_Color=8421504*
%ADD10R,0.00906X0.07874*%
%ADD11R,0.07874X0.00906*%
%ADD12O,0.00906X0.07874*%
%ADD13C,0.01000*%
%ADD14C,0.01575*%
%ADD15C,0.03937*%
%ADD16C,0.02362*%
%ADD17C,0.01969*%
%ADD18C,0.07087*%
%ADD19C,0.06400*%
%ADD20C,0.06693*%
%ADD21R,0.06693X0.06693*%
%ADD22C,0.11811*%
%ADD23C,0.07087*%
%ADD24R,0.07087X0.07087*%
%ADD25C,0.05906*%
%ADD26R,0.05906X0.05906*%
%ADD27O,0.06299X0.08661*%
%ADD28C,0.09843*%
%ADD29R,0.05906X0.05906*%
%ADD30C,0.05315*%
%ADD31R,0.05315X0.05315*%
%ADD32R,0.11024X0.11024*%
%ADD33C,0.11024*%
%ADD34C,0.07000*%
%ADD35O,0.07874X0.03937*%
%ADD36O,0.07874X0.03937*%
%ADD37R,0.05315X0.05315*%
%ADD38O,0.03937X0.07874*%
%ADD39O,0.03937X0.07874*%
%ADD40C,0.07874*%
%ADD41R,0.07874X0.07874*%
%ADD42R,0.11024X0.11024*%
%ADD43C,0.05000*%
%ADD44C,0.12992*%
%ADD45C,0.02953*%
%ADD46C,0.00984*%
%ADD47C,0.00600*%
%ADD48C,0.00394*%
%ADD49C,0.00787*%
%ADD50C,0.00500*%
%ADD51C,0.00591*%
%ADD52R,0.22047X0.03150*%
%ADD53R,0.03150X0.11024*%
%ADD54R,0.03150X0.22047*%
D10*
X422000Y406370D02*
D03*
X423575D02*
D03*
X425150D02*
D03*
X426724D02*
D03*
X428299D02*
D03*
X429874D02*
D03*
X431449D02*
D03*
X433024D02*
D03*
X434598D02*
D03*
X436173D02*
D03*
X437748D02*
D03*
X439323D02*
D03*
X440898D02*
D03*
X442472D02*
D03*
X444047D02*
D03*
X445622D02*
D03*
Y367000D02*
D03*
X444047D02*
D03*
X442472D02*
D03*
X440898D02*
D03*
X439323D02*
D03*
X437748D02*
D03*
X436173D02*
D03*
X434598D02*
D03*
X433024D02*
D03*
X431449D02*
D03*
X429874D02*
D03*
X428299D02*
D03*
X426724D02*
D03*
X425150D02*
D03*
X423575D02*
D03*
D11*
X453496Y398496D02*
D03*
Y396921D02*
D03*
Y395346D02*
D03*
Y393772D02*
D03*
Y392197D02*
D03*
Y390622D02*
D03*
Y389047D02*
D03*
Y387472D02*
D03*
Y385898D02*
D03*
Y384323D02*
D03*
Y382748D02*
D03*
Y381173D02*
D03*
Y379598D02*
D03*
Y378024D02*
D03*
Y376449D02*
D03*
Y374874D02*
D03*
X414126D02*
D03*
Y376449D02*
D03*
Y378024D02*
D03*
Y379598D02*
D03*
Y381173D02*
D03*
Y382748D02*
D03*
Y384323D02*
D03*
Y385898D02*
D03*
Y387472D02*
D03*
Y389047D02*
D03*
Y390622D02*
D03*
Y392197D02*
D03*
Y393772D02*
D03*
Y395346D02*
D03*
Y396921D02*
D03*
Y398496D02*
D03*
D12*
X422000Y367000D02*
D03*
M02*
