%FSLAX25Y25*%
%MOIN*%
G70*
G01*
G75*
G04 Layer_Physical_Order=2*
G04 Layer_Color=16711680*
%ADD10R,0.00906X0.07874*%
%ADD11R,0.07874X0.00906*%
%ADD12O,0.00906X0.07874*%
%ADD13C,0.01000*%
%ADD14C,0.01575*%
%ADD15C,0.03937*%
%ADD16C,0.02362*%
%ADD17C,0.01969*%
%ADD18C,0.07087*%
%ADD19C,0.06400*%
%ADD20C,0.06693*%
%ADD21R,0.06693X0.06693*%
%ADD22C,0.11811*%
%ADD23C,0.07087*%
%ADD24R,0.07087X0.07087*%
%ADD25C,0.05906*%
%ADD26R,0.05906X0.05906*%
%ADD27O,0.06299X0.08661*%
%ADD28C,0.09843*%
%ADD29R,0.05906X0.05906*%
%ADD30C,0.05315*%
%ADD31R,0.05315X0.05315*%
%ADD32R,0.11024X0.11024*%
%ADD33C,0.11024*%
%ADD34C,0.07000*%
%ADD35O,0.07874X0.03937*%
%ADD36O,0.07874X0.03937*%
%ADD37R,0.05315X0.05315*%
%ADD38O,0.03937X0.07874*%
%ADD39O,0.03937X0.07874*%
%ADD40C,0.07874*%
%ADD41R,0.07874X0.07874*%
%ADD42R,0.11024X0.11024*%
%ADD43C,0.05000*%
%ADD44C,0.12992*%
%ADD45C,0.02953*%
D13*
X394000Y469500D02*
X467500D01*
X390000Y465500D02*
X394000Y469500D01*
X390000Y379500D02*
Y465500D01*
X354500Y322000D02*
X355500Y321000D01*
X354500Y322000D02*
Y342500D01*
X365500Y297500D02*
Y340500D01*
X617000Y248500D02*
X617500Y249000D01*
Y258500D01*
X615000Y261000D02*
X617500Y258500D01*
X568500Y261000D02*
X615000D01*
X567000Y262500D02*
X568500Y261000D01*
X559500Y294500D02*
X567000D01*
X584000Y300000D02*
X584500Y299500D01*
X565500Y300000D02*
X584000D01*
X562000Y303500D02*
X565500Y300000D01*
X562000Y303500D02*
Y337500D01*
X571500Y342500D02*
X584500D01*
X570000Y341000D02*
X571500Y342500D01*
X570000Y309000D02*
Y341000D01*
Y309000D02*
X574500Y304500D01*
X584500D01*
X553500Y300500D02*
Y352000D01*
Y300500D02*
X559500Y294500D01*
X527500Y252000D02*
X546500D01*
X549000Y249500D01*
Y242500D02*
Y249500D01*
Y242500D02*
X553500Y238000D01*
X613000D01*
X616000Y235000D01*
Y228500D02*
Y235000D01*
X458996Y534004D02*
Y563390D01*
X446500Y522500D02*
X447500D01*
X469500D01*
X441000Y511500D02*
X442000D01*
X465500D01*
X435500Y500000D02*
X468000D01*
X430500Y490000D02*
X467500D01*
X397000Y480000D02*
X467000D01*
X390000Y379500D02*
X391000Y378500D01*
X395000Y478000D02*
X397000Y480000D01*
X395000Y473500D02*
Y478000D01*
Y397500D02*
Y417000D01*
X407000Y391500D02*
Y460500D01*
X410000Y463500D01*
X511000Y382500D02*
X524000D01*
X505000Y376500D02*
X511000Y382500D01*
X575000Y372500D02*
Y539500D01*
X568500Y546000D02*
X575000Y539500D01*
X545000Y546000D02*
X568500D01*
X538996Y552004D02*
X545000Y546000D01*
X538996Y552004D02*
Y563390D01*
X450500Y403000D02*
X475500D01*
X444000Y396500D02*
X450500Y403000D01*
X419000Y393500D02*
X422000Y396500D01*
X419000Y351500D02*
Y393500D01*
X422000Y396500D02*
X431500D01*
X443500D01*
X371000Y346000D02*
X438500D01*
X365500Y340500D02*
X371000Y346000D01*
X438500D02*
X442500Y350000D01*
Y372000D01*
X443000Y372500D01*
X608000Y294500D02*
X613500Y289000D01*
X567000Y294500D02*
X608000D01*
X298590Y321000D02*
X300500Y319091D01*
X448000Y343500D02*
Y354500D01*
X444500Y340000D02*
X448000Y343500D01*
X389000Y340000D02*
X444500D01*
X382500Y333500D02*
X389000Y340000D01*
X382500Y307500D02*
Y333500D01*
X298590Y321000D02*
X325500D01*
Y309000D02*
Y321000D01*
Y309000D02*
X326500Y308000D01*
X363500Y295500D02*
X365500Y297500D01*
X353000Y295500D02*
X363500D01*
X326500Y291500D02*
Y308000D01*
Y291500D02*
X330500Y287500D01*
X412500D01*
X417126Y292126D01*
Y296614D01*
X257410Y300500D02*
Y321000D01*
Y300500D02*
X257909Y300000D01*
X398996Y563390D02*
X406106Y570500D01*
X543000D01*
X548996Y564504D01*
X432874Y316693D02*
X439807D01*
X444500Y312000D01*
Y277000D02*
Y312000D01*
X440587Y273087D02*
X444500Y277000D01*
X434000Y273087D02*
X440587D01*
X434000Y254500D02*
Y273087D01*
X417500Y238000D02*
X434000Y254500D01*
X337500Y238000D02*
X417500D01*
X337000Y238500D02*
X337500Y238000D01*
X406500Y391000D02*
X407000Y391500D01*
X401500Y383500D02*
Y464000D01*
X405500Y392000D02*
X406500Y391000D01*
X405500Y392000D02*
Y393500D01*
X441500Y374000D02*
X443000Y372500D01*
X441500Y374000D02*
Y375500D01*
X439843Y379500D02*
X443157D01*
X446157Y376500D02*
X505000D01*
X424000D02*
X436843D01*
X439843Y379500D01*
X443157D02*
X446157Y376500D01*
X587000Y175998D02*
X590999D01*
X588999D01*
Y170000D01*
X592998Y175998D02*
X596997D01*
Y174998D01*
X592998Y171000D01*
Y170000D01*
X596997D01*
X604994Y175998D02*
Y170000D01*
X608993D01*
X610992D02*
X612992D01*
X611992D01*
Y173999D01*
X610992D01*
X615991D02*
Y171000D01*
X616990Y170000D01*
X619989D01*
Y173999D01*
X627987Y174998D02*
X628986Y175998D01*
X630986D01*
X631986Y174998D01*
Y171000D01*
X630986Y170000D01*
X628986D01*
X627987Y171000D01*
Y174998D01*
X637984Y175998D02*
X635984Y174998D01*
X633985Y172999D01*
Y171000D01*
X634984Y170000D01*
X636984D01*
X637984Y171000D01*
Y171999D01*
X636984Y172999D01*
X633985D01*
X643982Y170000D02*
X639983D01*
X643982Y173999D01*
Y174998D01*
X642982Y175998D01*
X640982D01*
X639983Y174998D01*
X645981Y175998D02*
X649980D01*
Y174998D01*
X645981Y171000D01*
Y170000D01*
D14*
X472500Y383000D02*
X482000Y392500D01*
X477000Y410900D02*
X482000Y405900D01*
Y392500D02*
Y405900D01*
X260201Y497484D02*
Y558201D01*
X264500Y562500D01*
Y564500D01*
X398000Y550000D02*
X402000D01*
X398000Y535000D02*
Y550000D01*
Y535000D02*
X405500Y527500D01*
X477000D01*
X472500Y383000D02*
X475500D01*
X402000Y550000D02*
X408996Y556996D01*
Y563390D01*
X584500Y347500D02*
Y568000D01*
X578500Y574000D02*
X584500Y568000D01*
X274000Y574000D02*
X578500D01*
X264500Y564500D02*
X274000Y574000D01*
X605000Y405500D02*
X606500Y407000D01*
X605000Y372500D02*
Y405500D01*
X344500Y550000D02*
X398000D01*
X483000Y442500D02*
X516500D01*
X477000Y436500D02*
X483000Y442500D01*
X477000Y410900D02*
Y436500D01*
Y527500D01*
X331000Y536500D02*
X344500Y550000D01*
X331000Y496500D02*
Y536500D01*
X312500Y478000D02*
X331000Y496500D01*
X196000Y478000D02*
X312500D01*
X183130Y490870D02*
X196000Y478000D01*
X183130Y490870D02*
Y512000D01*
D15*
X495000Y230500D02*
X498842Y234343D01*
Y130342D02*
Y234343D01*
Y241000D01*
X441000Y230500D02*
X495000D01*
X730000Y505055D02*
X732500Y507555D01*
Y536000D01*
X523500Y280000D02*
X700500D01*
X725587Y310500D02*
X737500D01*
X715000D02*
X725587D01*
X730445Y538055D02*
X732500Y536000D01*
X719508Y538055D02*
X730445D01*
X729276Y407555D02*
X745492D01*
X729276D02*
X731610Y409890D01*
X719508Y407555D02*
X729276D01*
X731610Y409890D02*
Y438000D01*
X729055Y440555D02*
X731610Y438000D01*
X730445Y505055D02*
X732500Y503000D01*
X730445Y505055D02*
X745492D01*
X729555Y472555D02*
X732110Y470000D01*
X729555Y472555D02*
X732500Y475500D01*
X729555Y472555D02*
X745492D01*
X719508D02*
X729555D01*
X729055Y440555D02*
X732110Y443610D01*
X729055Y440555D02*
X745492D01*
X719508D02*
X729055D01*
X732110Y443610D02*
Y470000D01*
X732500Y475500D02*
Y503000D01*
X730000Y505055D02*
X730445D01*
X719508D02*
X730000D01*
X730445Y538055D02*
X745492D01*
X548996Y563390D02*
Y564504D01*
X249500Y438500D02*
X270492Y459492D01*
X249500Y200500D02*
Y438500D01*
X270492Y459492D02*
X285945D01*
X270201Y497484D02*
X280201D01*
X210000Y459492D02*
X232008D01*
X256516Y172484D02*
X285945D01*
X200500Y369500D02*
X202500D01*
X631000Y324000D02*
Y346000D01*
X443500Y396500D02*
X444000D01*
X483500Y282500D02*
X487000Y286000D01*
X238500Y190500D02*
X256516Y172484D01*
X238500Y190500D02*
Y453000D01*
X232008Y459492D02*
X238500Y453000D01*
X249500Y200500D02*
X261000Y189000D01*
X345374D01*
X361890Y172484D01*
X699500Y281000D02*
X709000Y290500D01*
Y304500D01*
X715000Y310500D01*
X721087Y315000D02*
Y340500D01*
X711000Y399047D02*
X719508Y407555D01*
X740000Y357000D02*
X747500Y349500D01*
Y300500D02*
Y349500D01*
X737000Y290000D02*
X747500Y300500D01*
X711000Y362000D02*
Y399047D01*
Y362000D02*
X716000Y357000D01*
X740000D01*
X493000Y124500D02*
X498842Y130342D01*
X455500Y263000D02*
X506500D01*
X523500Y280000D01*
X487500Y286500D02*
Y306000D01*
X493000Y311500D01*
X434000Y223500D02*
X441000Y230500D01*
X434000Y198913D02*
Y223500D01*
X494000Y275000D02*
X495000D01*
X509000Y289000D01*
X603500D01*
X489000Y359500D02*
X493000Y355500D01*
X465000Y359500D02*
X489000D01*
X456500Y351000D02*
X465000Y359500D01*
X456500Y288000D02*
Y351000D01*
X456000Y282500D02*
X483500D01*
X456500Y288000D02*
X461500Y283000D01*
X493000Y322000D02*
Y355500D01*
D16*
X589000Y220000D02*
X643500D01*
X586000Y223000D02*
X589000Y220000D01*
X586000Y223000D02*
Y228500D01*
X643500Y220000D02*
X647500Y224000D01*
Y229000D01*
X601000Y323000D02*
X601500Y323500D01*
X601000Y302500D02*
Y323000D01*
Y324000D02*
X601500Y323500D01*
X601000Y324000D02*
Y346000D01*
X510000Y229500D02*
X585000D01*
X586000Y228500D01*
X284500Y342500D02*
X324500D01*
X279500Y347500D02*
X284500Y342500D01*
X479157Y241000D02*
X481000D01*
X505500Y234000D02*
X510000Y229500D01*
X505500Y234000D02*
Y251000D01*
X501500Y255000D02*
X505500Y251000D01*
X484500Y255000D02*
X501500D01*
X479157Y249658D02*
X484500Y255000D01*
X479157Y241000D02*
Y249658D01*
D17*
X623500Y298500D02*
X625500Y300500D01*
X642500D01*
X603000D02*
X625500D01*
X640000Y303000D02*
X642500Y300500D01*
X651500D01*
X640000Y303000D02*
Y335500D01*
X601000Y302500D02*
X603000Y300500D01*
X623500Y289000D02*
Y298500D01*
X640000Y335500D02*
X645000Y340500D01*
X652000Y311000D02*
X699500D01*
X279500Y347500D02*
Y349500D01*
X390807Y303307D02*
X432874D01*
X383000Y295500D02*
X390807Y303307D01*
D18*
X226055Y334992D02*
D03*
X207945D02*
D03*
X226055Y309008D02*
D03*
X207945D02*
D03*
X719508Y440555D02*
D03*
Y422445D02*
D03*
X745492Y440555D02*
D03*
Y422445D02*
D03*
X719508Y472555D02*
D03*
Y454445D02*
D03*
X745492Y472555D02*
D03*
Y454445D02*
D03*
X719508Y505055D02*
D03*
Y486945D02*
D03*
X745492Y505055D02*
D03*
Y486945D02*
D03*
X719508Y538055D02*
D03*
Y519945D02*
D03*
X745492Y538055D02*
D03*
Y519945D02*
D03*
X719508Y407555D02*
D03*
Y389445D02*
D03*
X745492Y407555D02*
D03*
Y389445D02*
D03*
D19*
X699500Y311000D02*
D03*
Y281000D02*
D03*
X344500Y530000D02*
D03*
Y550000D02*
D03*
X474000Y275000D02*
D03*
X494000D02*
D03*
X605000Y372500D02*
D03*
X575000D02*
D03*
X471000Y324000D02*
D03*
Y304000D02*
D03*
X606500Y407000D02*
D03*
X626500D02*
D03*
X468000Y345000D02*
D03*
X488000D02*
D03*
X513000Y311500D02*
D03*
X493000D02*
D03*
X259000Y379500D02*
D03*
X279000D02*
D03*
X513000Y322000D02*
D03*
X493000D02*
D03*
X475500Y403000D02*
D03*
Y383000D02*
D03*
X279500Y349500D02*
D03*
Y369500D02*
D03*
X257500Y349500D02*
D03*
Y369500D02*
D03*
X647500Y229000D02*
D03*
Y249000D02*
D03*
X601500Y323500D02*
D03*
X631500D02*
D03*
X601000Y346000D02*
D03*
X631000D02*
D03*
X200500Y349500D02*
D03*
Y369500D02*
D03*
X616000Y228500D02*
D03*
X586000D02*
D03*
X354500Y342500D02*
D03*
X324500D02*
D03*
X524000Y367000D02*
D03*
X554000D02*
D03*
Y382500D02*
D03*
X524000D02*
D03*
X325500Y321000D02*
D03*
X355500D02*
D03*
X617000Y248500D02*
D03*
X587000D02*
D03*
X617500Y269000D02*
D03*
X587500D02*
D03*
X567000Y412500D02*
D03*
Y442500D02*
D03*
X382500Y307500D02*
D03*
X352500D02*
D03*
X383000Y295500D02*
D03*
X353000D02*
D03*
X541500Y442500D02*
D03*
Y412500D02*
D03*
X529000Y442500D02*
D03*
Y412500D02*
D03*
X516500Y442500D02*
D03*
Y412500D02*
D03*
X553500Y352000D02*
D03*
X523500D02*
D03*
X554000Y442500D02*
D03*
Y412500D02*
D03*
X513000Y301500D02*
D03*
X493000D02*
D03*
D20*
X417126Y296614D02*
D03*
X432874Y303307D02*
D03*
X417126Y310000D02*
D03*
X432874Y316693D02*
D03*
D21*
X417126Y323386D02*
D03*
D22*
X210000Y459492D02*
D03*
X285945D02*
D03*
X361890D02*
D03*
Y172484D02*
D03*
X285945D02*
D03*
X210000D02*
D03*
D23*
X548996Y563390D02*
D03*
X538996D02*
D03*
X528996D02*
D03*
X518996D02*
D03*
X508996D02*
D03*
X498996D02*
D03*
X488996D02*
D03*
X478996D02*
D03*
X468996D02*
D03*
X458996D02*
D03*
X448996D02*
D03*
X438996D02*
D03*
X428996D02*
D03*
X418996D02*
D03*
X408996D02*
D03*
D24*
X398996D02*
D03*
D25*
X493000Y124500D02*
D03*
X503000D02*
D03*
X513000D02*
D03*
X737500Y320500D02*
D03*
X737000Y290000D02*
D03*
D26*
X523000Y124500D02*
D03*
D27*
X310201Y497484D02*
D03*
X290201D02*
D03*
X280201D02*
D03*
X270201D02*
D03*
X260201D02*
D03*
X300201D02*
D03*
X270437Y542760D02*
D03*
X280437D02*
D03*
D28*
X337000Y238500D02*
D03*
Y273933D02*
D03*
X192972Y531685D02*
D03*
X202815Y512000D02*
D03*
D29*
X737500Y310500D02*
D03*
X737000Y280000D02*
D03*
D30*
X498842Y241000D02*
D03*
X225500Y369342D02*
D03*
D31*
X479157Y241000D02*
D03*
D32*
X434000Y273087D02*
D03*
D33*
Y198913D02*
D03*
X646913Y340500D02*
D03*
D34*
X651500Y310500D02*
D03*
Y300500D02*
D03*
X527500Y252000D02*
D03*
Y242000D02*
D03*
D35*
X584500Y347500D02*
D03*
Y337500D02*
D03*
Y309500D02*
D03*
Y299500D02*
D03*
D36*
Y342500D02*
D03*
Y304500D02*
D03*
D37*
X225500Y349658D02*
D03*
D38*
X623500Y289000D02*
D03*
X326500Y308000D02*
D03*
X316500D02*
D03*
D39*
X613500Y289000D02*
D03*
X603500D02*
D03*
X321500Y308000D02*
D03*
D40*
X298590Y321000D02*
D03*
X299091Y300000D02*
D03*
D41*
X257410Y321000D02*
D03*
X257909Y300000D02*
D03*
X183130Y512000D02*
D03*
D42*
X721087Y340500D02*
D03*
D43*
X519500Y229500D02*
D03*
X567000Y262500D02*
D03*
Y294500D02*
D03*
X562000Y337500D02*
D03*
X458996Y534004D02*
D03*
X469500Y522500D02*
D03*
X447500D02*
D03*
X465500Y511500D02*
D03*
X442000D02*
D03*
X468000Y500000D02*
D03*
X435500D02*
D03*
X467500Y490000D02*
D03*
X430500D02*
D03*
X467000Y480000D02*
D03*
X467500Y469500D02*
D03*
X391000Y378500D02*
D03*
X395000Y397500D02*
D03*
Y473500D02*
D03*
Y417000D02*
D03*
X401500Y383500D02*
D03*
Y464000D02*
D03*
X410000Y463500D02*
D03*
X424000Y376500D02*
D03*
X419000Y351500D02*
D03*
X431500Y396500D02*
D03*
X443500D02*
D03*
X448000Y354500D02*
D03*
X456000Y282500D02*
D03*
X455500Y263000D02*
D03*
X405500Y393500D02*
D03*
X441500Y375500D02*
D03*
D44*
X377343Y441342D02*
D03*
X672618D02*
D03*
Y563390D02*
D03*
X377343D02*
D03*
D45*
X721087Y315000D02*
X725587Y310500D01*
M02*
