%FSLAX25Y25*%
%MOIN*%
G70*
G01*
G75*
%ADD10R,0.00906X0.07874*%
%ADD11R,0.07874X0.00906*%
%ADD12O,0.00906X0.07874*%
%ADD13C,0.01000*%
%ADD14C,0.01575*%
%ADD15C,0.03937*%
%ADD16C,0.02362*%
%ADD17C,0.01969*%
%ADD18C,0.07087*%
%ADD19C,0.06400*%
%ADD20C,0.06693*%
%ADD21R,0.06693X0.06693*%
%ADD22C,0.11811*%
%ADD23C,0.07087*%
%ADD24R,0.07087X0.07087*%
%ADD25C,0.05906*%
%ADD26R,0.05906X0.05906*%
%ADD27O,0.06299X0.08661*%
%ADD28C,0.09843*%
%ADD29R,0.05906X0.05906*%
%ADD30C,0.05315*%
%ADD31R,0.05315X0.05315*%
%ADD32R,0.11024X0.11024*%
%ADD33C,0.11024*%
%ADD34C,0.07000*%
%ADD35O,0.07874X0.03937*%
%ADD36O,0.07874X0.03937*%
%ADD37R,0.05315X0.05315*%
%ADD38O,0.03937X0.07874*%
%ADD39O,0.03937X0.07874*%
%ADD40C,0.07874*%
%ADD41R,0.07874X0.07874*%
%ADD42R,0.11024X0.11024*%
%ADD43C,0.05000*%
%ADD44C,0.12992*%
%ADD45C,0.02953*%
%ADD46C,0.00984*%
%ADD47C,0.00600*%
%ADD48C,0.00394*%
%ADD49C,0.00787*%
%ADD50C,0.00500*%
%ADD51C,0.00591*%
%ADD52R,0.22047X0.03150*%
%ADD53R,0.03150X0.11024*%
%ADD54R,0.03150X0.22047*%
D13*
X220937Y322000D02*
G03*
X220937Y322000I-3937J0D01*
G01*
X736437Y431500D02*
G03*
X736437Y431500I-3937J0D01*
G01*
Y463500D02*
G03*
X736437Y463500I-3937J0D01*
G01*
Y496000D02*
G03*
X736437Y496000I-3937J0D01*
G01*
Y529000D02*
G03*
X736437Y529000I-3937J0D01*
G01*
Y398500D02*
G03*
X736437Y398500I-3937J0D01*
G01*
X213457Y310189D02*
X220150D01*
X213457Y333811D02*
X220150D01*
X228811Y315307D02*
Y328693D01*
X205189Y315307D02*
Y328693D01*
X403445Y163035D02*
Y470358D01*
X168445Y163035D02*
X403445D01*
X168445Y470358D02*
X403445D01*
X168445Y163035D02*
Y470358D01*
X367500Y431500D02*
Y573232D01*
X682461D01*
Y431500D02*
Y573232D01*
X367500Y431500D02*
X682461D01*
X289756Y228658D02*
Y283776D01*
X384244Y228658D02*
Y283776D01*
X289756Y228658D02*
X384842D01*
X289756Y283776D02*
X384244D01*
X744311Y427957D02*
Y434650D01*
X720689Y427957D02*
Y434650D01*
X725807Y443311D02*
X739193D01*
X725807Y419689D02*
X739193D01*
X744311Y459957D02*
Y466650D01*
X720689Y459957D02*
Y466650D01*
X725807Y475311D02*
X739193D01*
X725807Y451689D02*
X739193D01*
X744311Y492457D02*
Y499150D01*
X720689Y492457D02*
Y499150D01*
X725807Y507811D02*
X739193D01*
X725807Y484189D02*
X739193D01*
X744311Y525457D02*
Y532150D01*
X720689Y525457D02*
Y532150D01*
X725807Y540811D02*
X739193D01*
X725807Y517189D02*
X739193D01*
X163500Y110500D02*
X754051D01*
X163500D02*
Y580012D01*
X753831D01*
X754110Y110500D02*
Y580012D01*
X744311Y394957D02*
Y401650D01*
X720689Y394957D02*
Y401650D01*
X725807Y410311D02*
X739193D01*
X725807Y386689D02*
X739193D01*
X463800Y341198D02*
Y340198D01*
X465799Y338199D01*
X467799Y340198D01*
Y341198D01*
X465799Y338199D02*
Y335200D01*
X469798D02*
X471797D01*
X470798D01*
Y341198D01*
X469798Y340198D01*
X414400Y340298D02*
Y335300D01*
X415400Y334300D01*
X417399D01*
X418399Y335300D01*
Y340298D01*
X420398Y339298D02*
X421398Y340298D01*
X423397D01*
X424397Y339298D01*
Y338299D01*
X423397Y337299D01*
X422397D01*
X423397D01*
X424397Y336299D01*
Y335300D01*
X423397Y334300D01*
X421398D01*
X420398Y335300D01*
X251000Y566698D02*
Y561700D01*
X252000Y560700D01*
X253999D01*
X254999Y561700D01*
Y566698D01*
X260997Y560700D02*
X256998D01*
X260997Y564699D01*
Y565698D01*
X259997Y566698D01*
X257998D01*
X256998Y565698D01*
X412750Y417748D02*
Y412750D01*
X413750Y411750D01*
X415749D01*
X416749Y412750D01*
Y417748D01*
X418748Y411750D02*
X420747D01*
X419748D01*
Y417748D01*
X418748Y416748D01*
X208999Y346898D02*
X207999Y347898D01*
X206000D01*
X205000Y346898D01*
Y345899D01*
X206000Y344899D01*
X207999D01*
X208999Y343899D01*
Y342900D01*
X207999Y341900D01*
X206000D01*
X205000Y342900D01*
X214997Y347898D02*
X212997Y346898D01*
X210998Y344899D01*
Y342900D01*
X211998Y341900D01*
X213997D01*
X214997Y342900D01*
Y343899D01*
X213997Y344899D01*
X210998D01*
X717999Y550498D02*
X716999Y551498D01*
X715000D01*
X714000Y550498D01*
Y549499D01*
X715000Y548499D01*
X716999D01*
X717999Y547499D01*
Y546500D01*
X716999Y545500D01*
X715000D01*
X714000Y546500D01*
X723997Y551498D02*
X719998D01*
Y548499D01*
X721997Y549499D01*
X722997D01*
X723997Y548499D01*
Y546500D01*
X722997Y545500D01*
X720998D01*
X719998Y546500D01*
X712499Y497498D02*
X711499Y498498D01*
X709500D01*
X708500Y497498D01*
Y496499D01*
X709500Y495499D01*
X711499D01*
X712499Y494499D01*
Y493500D01*
X711499Y492500D01*
X709500D01*
X708500Y493500D01*
X717497Y492500D02*
Y498498D01*
X714498Y495499D01*
X718497D01*
X708999Y469998D02*
X707999Y470998D01*
X706000D01*
X705000Y469998D01*
Y468999D01*
X706000Y467999D01*
X707999D01*
X708999Y466999D01*
Y466000D01*
X707999Y465000D01*
X706000D01*
X705000Y466000D01*
X710998Y469998D02*
X711998Y470998D01*
X713997D01*
X714997Y469998D01*
Y468999D01*
X713997Y467999D01*
X712997D01*
X713997D01*
X714997Y466999D01*
Y466000D01*
X713997Y465000D01*
X711998D01*
X710998Y466000D01*
X713499Y416998D02*
X712499Y417998D01*
X710500D01*
X709500Y416998D01*
Y415999D01*
X710500Y414999D01*
X712499D01*
X713499Y413999D01*
Y413000D01*
X712499Y412000D01*
X710500D01*
X709500Y413000D01*
X719497Y412000D02*
X715498D01*
X719497Y415999D01*
Y416998D01*
X718497Y417998D01*
X716498D01*
X715498Y416998D01*
X731499Y378998D02*
X730499Y379998D01*
X728500D01*
X727500Y378998D01*
Y377999D01*
X728500Y376999D01*
X730499D01*
X731499Y375999D01*
Y375000D01*
X730499Y374000D01*
X728500D01*
X727500Y375000D01*
X733498Y374000D02*
X735497D01*
X734498D01*
Y379998D01*
X733498Y378998D01*
X350400Y302400D02*
Y308398D01*
X353399D01*
X354399Y307398D01*
Y305399D01*
X353399Y304399D01*
X350400D01*
X352399D02*
X354399Y302400D01*
X360397D02*
X356398D01*
X360397Y306399D01*
Y307398D01*
X359397Y308398D01*
X357398D01*
X356398Y307398D01*
X362396D02*
X363396Y308398D01*
X365395D01*
X366395Y307398D01*
Y303400D01*
X365395Y302400D01*
X363396D01*
X362396Y303400D01*
Y307398D01*
X349900Y314400D02*
Y320398D01*
X352899D01*
X353899Y319398D01*
Y317399D01*
X352899Y316399D01*
X349900D01*
X351899D02*
X353899Y314400D01*
X355898D02*
X357897D01*
X356898D01*
Y320398D01*
X355898Y319398D01*
X360896Y315400D02*
X361896Y314400D01*
X363896D01*
X364895Y315400D01*
Y319398D01*
X363896Y320398D01*
X361896D01*
X360896Y319398D01*
Y318399D01*
X361896Y317399D01*
X364895D01*
X583400Y235400D02*
Y241398D01*
X586399D01*
X587399Y240398D01*
Y238399D01*
X586399Y237399D01*
X583400D01*
X585399D02*
X587399Y235400D01*
X589398D02*
X591397D01*
X590398D01*
Y241398D01*
X589398Y240398D01*
X594396D02*
X595396Y241398D01*
X597396D01*
X598395Y240398D01*
Y239399D01*
X597396Y238399D01*
X598395Y237399D01*
Y236400D01*
X597396Y235400D01*
X595396D01*
X594396Y236400D01*
Y237399D01*
X595396Y238399D01*
X594396Y239399D01*
Y240398D01*
X595396Y238399D02*
X597396D01*
X322900Y327900D02*
Y333898D01*
X325899D01*
X326899Y332898D01*
Y330899D01*
X325899Y329899D01*
X322900D01*
X324899D02*
X326899Y327900D01*
X328898D02*
X330897D01*
X329898D01*
Y333898D01*
X328898Y332898D01*
X333896Y333898D02*
X337895D01*
Y332898D01*
X333896Y328900D01*
Y327900D01*
X321900Y349400D02*
Y355398D01*
X324899D01*
X325899Y354398D01*
Y352399D01*
X324899Y351399D01*
X321900D01*
X323899D02*
X325899Y349400D01*
X327898D02*
X329897D01*
X328898D01*
Y355398D01*
X327898Y354398D01*
X336895Y355398D02*
X334896Y354398D01*
X332896Y352399D01*
Y350400D01*
X333896Y349400D01*
X335895D01*
X336895Y350400D01*
Y351399D01*
X335895Y352399D01*
X332896D01*
X513600Y449100D02*
Y455098D01*
X516599D01*
X517599Y454098D01*
Y452099D01*
X516599Y451099D01*
X513600D01*
X515599D02*
X517599Y449100D01*
X519598D02*
X521597D01*
X520598D01*
Y455098D01*
X519598Y454098D01*
X528595Y455098D02*
X524596D01*
Y452099D01*
X526596Y453099D01*
X527596D01*
X528595Y452099D01*
Y450100D01*
X527596Y449100D01*
X525596D01*
X524596Y450100D01*
X526100Y449100D02*
Y455098D01*
X529099D01*
X530099Y454098D01*
Y452099D01*
X529099Y451099D01*
X526100D01*
X528099D02*
X530099Y449100D01*
X532098D02*
X534097D01*
X533098D01*
Y455098D01*
X532098Y454098D01*
X540096Y449100D02*
Y455098D01*
X537096Y452099D01*
X541095D01*
X584400Y255400D02*
Y261398D01*
X587399D01*
X588399Y260398D01*
Y258399D01*
X587399Y257399D01*
X584400D01*
X586399D02*
X588399Y255400D01*
X590398D02*
X592397D01*
X591398D01*
Y261398D01*
X590398Y260398D01*
X595396D02*
X596396Y261398D01*
X598395D01*
X599395Y260398D01*
Y259399D01*
X598395Y258399D01*
X597396D01*
X598395D01*
X599395Y257399D01*
Y256400D01*
X598395Y255400D01*
X596396D01*
X595396Y256400D01*
X584900Y275900D02*
Y281898D01*
X587899D01*
X588899Y280898D01*
Y278899D01*
X587899Y277899D01*
X584900D01*
X586899D02*
X588899Y275900D01*
X590898D02*
X592897D01*
X591898D01*
Y281898D01*
X590898Y280898D01*
X599895Y275900D02*
X595896D01*
X599895Y279899D01*
Y280898D01*
X598896Y281898D01*
X596896D01*
X595896Y280898D01*
X227500Y495000D02*
X233498D01*
Y492001D01*
X232498Y491001D01*
X230499D01*
X229499Y492001D01*
Y495000D01*
Y493001D02*
X227500Y491001D01*
Y489002D02*
Y487003D01*
Y488002D01*
X233498D01*
X232498Y489002D01*
X227500Y484004D02*
Y482004D01*
Y483004D01*
X233498D01*
X232498Y484004D01*
X521000Y337500D02*
Y343498D01*
X523999D01*
X524999Y342498D01*
Y340499D01*
X523999Y339499D01*
X521000D01*
X522999D02*
X524999Y337500D01*
X526998D02*
X528997D01*
X527998D01*
Y343498D01*
X526998Y342498D01*
X531996D02*
X532996Y343498D01*
X534996D01*
X535995Y342498D01*
Y338500D01*
X534996Y337500D01*
X532996D01*
X531996Y338500D01*
Y342498D01*
X521400Y373900D02*
Y379898D01*
X524399D01*
X525399Y378898D01*
Y376899D01*
X524399Y375899D01*
X521400D01*
X523399D02*
X525399Y373900D01*
X527398Y374900D02*
X528398Y373900D01*
X530397D01*
X531397Y374900D01*
Y378898D01*
X530397Y379898D01*
X528398D01*
X527398Y378898D01*
Y377899D01*
X528398Y376899D01*
X531397D01*
X521400Y389400D02*
Y395398D01*
X524399D01*
X525399Y394398D01*
Y392399D01*
X524399Y391399D01*
X521400D01*
X523399D02*
X525399Y389400D01*
X527398Y394398D02*
X528398Y395398D01*
X530397D01*
X531397Y394398D01*
Y393399D01*
X530397Y392399D01*
X531397Y391399D01*
Y390400D01*
X530397Y389400D01*
X528398D01*
X527398Y390400D01*
Y391399D01*
X528398Y392399D01*
X527398Y393399D01*
Y394398D01*
X528398Y392399D02*
X530397D01*
X538600Y449100D02*
Y455098D01*
X541599D01*
X542599Y454098D01*
Y452099D01*
X541599Y451099D01*
X538600D01*
X540599D02*
X542599Y449100D01*
X544598Y455098D02*
X548597D01*
Y454098D01*
X544598Y450100D01*
Y449100D01*
X572400Y379400D02*
Y385398D01*
X575399D01*
X576399Y384398D01*
Y382399D01*
X575399Y381399D01*
X572400D01*
X574399D02*
X576399Y379400D01*
X582397Y385398D02*
X580397Y384398D01*
X578398Y382399D01*
Y380400D01*
X579398Y379400D01*
X581397D01*
X582397Y380400D01*
Y381399D01*
X581397Y382399D01*
X578398D01*
X536500Y447000D02*
Y452998D01*
X539499D01*
X540499Y451998D01*
Y449999D01*
X539499Y448999D01*
X536500D01*
X538499D02*
X540499Y447000D01*
X546497Y452998D02*
X542498D01*
Y449999D01*
X544497Y450999D01*
X545497D01*
X546497Y449999D01*
Y448000D01*
X545497Y447000D01*
X543498D01*
X542498Y448000D01*
X598900Y330400D02*
Y336398D01*
X601899D01*
X602899Y335398D01*
Y333399D01*
X601899Y332399D01*
X598900D01*
X600899D02*
X602899Y330400D01*
X607897D02*
Y336398D01*
X604898Y333399D01*
X608897D01*
X598400Y352900D02*
Y358898D01*
X601399D01*
X602399Y357898D01*
Y355899D01*
X601399Y354899D01*
X598400D01*
X600399D02*
X602399Y352900D01*
X604398Y357898D02*
X605398Y358898D01*
X607397D01*
X608397Y357898D01*
Y356899D01*
X607397Y355899D01*
X606397D01*
X607397D01*
X608397Y354899D01*
Y353900D01*
X607397Y352900D01*
X605398D01*
X604398Y353900D01*
X564100Y449100D02*
Y455098D01*
X567099D01*
X568099Y454098D01*
Y452099D01*
X567099Y451099D01*
X564100D01*
X566099D02*
X568099Y449100D01*
X574097D02*
X570098D01*
X574097Y453099D01*
Y454098D01*
X573097Y455098D01*
X571098D01*
X570098Y454098D01*
X696600Y317600D02*
Y323598D01*
X699599D01*
X700599Y322598D01*
Y320599D01*
X699599Y319599D01*
X696600D01*
X698599D02*
X700599Y317600D01*
X702598D02*
X704597D01*
X703598D01*
Y323598D01*
X702598Y322598D01*
X314399Y322200D02*
Y326198D01*
X313399Y327198D01*
X311400D01*
X310400Y326198D01*
Y322200D01*
X311400Y321200D01*
X313399D01*
X312399Y323199D02*
X314399Y321200D01*
X313399D02*
X314399Y322200D01*
X319397Y321200D02*
Y327198D01*
X316398Y324199D01*
X320397D01*
X579349Y318650D02*
Y322648D01*
X578349Y323648D01*
X576350D01*
X575350Y322648D01*
Y318650D01*
X576350Y317650D01*
X578349D01*
X577349Y319649D02*
X579349Y317650D01*
X578349D02*
X579349Y318650D01*
X581348Y322648D02*
X582348Y323648D01*
X584347D01*
X585347Y322648D01*
Y321649D01*
X584347Y320649D01*
X583347D01*
X584347D01*
X585347Y319649D01*
Y318650D01*
X584347Y317650D01*
X582348D01*
X581348Y318650D01*
X600099Y298900D02*
Y302898D01*
X599099Y303898D01*
X597100D01*
X596100Y302898D01*
Y298900D01*
X597100Y297900D01*
X599099D01*
X598099Y299899D02*
X600099Y297900D01*
X599099D02*
X600099Y298900D01*
X606097Y297900D02*
X602098D01*
X606097Y301899D01*
Y302898D01*
X605097Y303898D01*
X603098D01*
X602098Y302898D01*
X579349Y356650D02*
Y360648D01*
X578349Y361648D01*
X576350D01*
X575350Y360648D01*
Y356650D01*
X576350Y355650D01*
X578349D01*
X577349Y357649D02*
X579349Y355650D01*
X578349D02*
X579349Y356650D01*
X581348Y355650D02*
X583347D01*
X582348D01*
Y361648D01*
X581348Y360648D01*
X732600Y298400D02*
Y304398D01*
X735599D01*
X736599Y303398D01*
Y301399D01*
X735599Y300399D01*
X732600D01*
X738598Y303398D02*
X739598Y304398D01*
X741597D01*
X742597Y303398D01*
Y302399D01*
X741597Y301399D01*
X740597D01*
X741597D01*
X742597Y300399D01*
Y299400D01*
X741597Y298400D01*
X739598D01*
X738598Y299400D01*
X186500Y390500D02*
Y396498D01*
X189499D01*
X190499Y395498D01*
Y393499D01*
X189499Y392499D01*
X186500D01*
X196497Y390500D02*
X192498D01*
X196497Y394499D01*
Y395498D01*
X195497Y396498D01*
X193498D01*
X192498Y395498D01*
X733100Y328900D02*
Y334898D01*
X736099D01*
X737099Y333898D01*
Y331899D01*
X736099Y330899D01*
X733100D01*
X739098Y328900D02*
X741097D01*
X740098D01*
Y334898D01*
X739098Y333898D01*
X491599Y138898D02*
X489600D01*
X488600Y137898D01*
Y133900D01*
X489600Y132900D01*
X491599D01*
X492599Y133900D01*
Y137898D01*
X491599Y138898D01*
X498597Y137898D02*
X497597Y138898D01*
X495598D01*
X494598Y137898D01*
Y133900D01*
X495598Y132900D01*
X497597D01*
X498597Y133900D01*
X500596Y138898D02*
Y132900D01*
X503595D01*
X504595Y133900D01*
Y137898D01*
X503595Y138898D01*
X500596D01*
X510593Y137898D02*
X509593Y138898D01*
X507594D01*
X506594Y137898D01*
Y136899D01*
X507594Y135899D01*
X509593D01*
X510593Y134899D01*
Y133900D01*
X509593Y132900D01*
X507594D01*
X506594Y133900D01*
X512592Y132900D02*
X514592D01*
X513592D01*
Y138898D01*
X512592Y137898D01*
X290300Y293298D02*
Y287300D01*
X294299D01*
X296298D02*
X298297D01*
X297298D01*
Y293298D01*
X296298Y292298D01*
X513300Y268198D02*
Y262200D01*
X516299D01*
X517299Y263200D01*
Y267198D01*
X516299Y268198D01*
X513300D01*
X523297Y267198D02*
X522297Y268198D01*
X520298D01*
X519298Y267198D01*
Y266199D01*
X520298Y265199D01*
X522297D01*
X523297Y264199D01*
Y263200D01*
X522297Y262200D01*
X520298D01*
X519298Y263200D01*
X525296Y267198D02*
X526296Y268198D01*
X528295D01*
X529295Y267198D01*
Y266199D01*
X528295Y265199D01*
X527295D01*
X528295D01*
X529295Y264199D01*
Y263200D01*
X528295Y262200D01*
X526296D01*
X525296Y263200D01*
X637300Y326698D02*
Y320700D01*
X640299D01*
X641299Y321700D01*
Y325698D01*
X640299Y326698D01*
X637300D01*
X647297Y325698D02*
X646297Y326698D01*
X644298D01*
X643298Y325698D01*
Y324699D01*
X644298Y323699D01*
X646297D01*
X647297Y322699D01*
Y321700D01*
X646297Y320700D01*
X644298D01*
X643298Y321700D01*
X653295Y320700D02*
X649296D01*
X653295Y324699D01*
Y325698D01*
X652295Y326698D01*
X650296D01*
X649296Y325698D01*
X368000Y582798D02*
Y576800D01*
X370999D01*
X371999Y577800D01*
Y581798D01*
X370999Y582798D01*
X368000D01*
X377997Y581798D02*
X376997Y582798D01*
X374998D01*
X373998Y581798D01*
Y580799D01*
X374998Y579799D01*
X376997D01*
X377997Y578799D01*
Y577800D01*
X376997Y576800D01*
X374998D01*
X373998Y577800D01*
X379996Y576800D02*
X381996D01*
X380996D01*
Y582798D01*
X379996Y581798D01*
X254600Y314898D02*
Y308900D01*
X257599D01*
X258599Y309900D01*
Y313898D01*
X257599Y314898D01*
X254600D01*
X263597Y308900D02*
Y314898D01*
X260598Y311899D01*
X264597D01*
X254100Y335898D02*
Y329900D01*
X257099D01*
X258099Y330900D01*
Y334898D01*
X257099Y335898D01*
X254100D01*
X260098Y334898D02*
X261098Y335898D01*
X263097D01*
X264097Y334898D01*
Y333899D01*
X263097Y332899D01*
X262097D01*
X263097D01*
X264097Y331899D01*
Y330900D01*
X263097Y329900D01*
X261098D01*
X260098Y330900D01*
X423600Y287998D02*
Y282000D01*
X426599D01*
X427599Y283000D01*
Y286998D01*
X426599Y287998D01*
X423600D01*
X433597Y282000D02*
X429598D01*
X433597Y285999D01*
Y286998D01*
X432597Y287998D01*
X430598D01*
X429598Y286998D01*
X682998Y323000D02*
X677000D01*
Y320001D01*
X678000Y319001D01*
X681998D01*
X682998Y320001D01*
Y323000D01*
X677000Y317002D02*
Y315003D01*
Y316002D01*
X682998D01*
X681998Y317002D01*
X648399Y260598D02*
X647399Y261598D01*
X645400D01*
X644400Y260598D01*
Y256600D01*
X645400Y255600D01*
X647399D01*
X648399Y256600D01*
X650398Y255600D02*
X652397D01*
X651398D01*
Y261598D01*
X650398Y260598D01*
X659395Y261598D02*
X655396D01*
Y258599D01*
X657396Y259599D01*
X658395D01*
X659395Y258599D01*
Y256600D01*
X658395Y255600D01*
X656396D01*
X655396Y256600D01*
X481049Y257248D02*
X480049Y258248D01*
X478050D01*
X477050Y257248D01*
Y253250D01*
X478050Y252250D01*
X480049D01*
X481049Y253250D01*
X483048Y252250D02*
X485047D01*
X484048D01*
Y258248D01*
X483048Y257248D01*
X491046Y252250D02*
Y258248D01*
X488046Y255249D01*
X492045D01*
X222199Y380398D02*
X221199Y381398D01*
X219200D01*
X218200Y380398D01*
Y376400D01*
X219200Y375400D01*
X221199D01*
X222199Y376400D01*
X224198Y375400D02*
X226197D01*
X225198D01*
Y381398D01*
X224198Y380398D01*
X229196D02*
X230196Y381398D01*
X232195D01*
X233195Y380398D01*
Y379399D01*
X232195Y378399D01*
X231196D01*
X232195D01*
X233195Y377399D01*
Y376400D01*
X232195Y375400D01*
X230196D01*
X229196Y376400D01*
X201349Y381148D02*
X200349Y382148D01*
X198350D01*
X197350Y381148D01*
Y377150D01*
X198350Y376150D01*
X200349D01*
X201349Y377150D01*
X203348Y376150D02*
X205347D01*
X204348D01*
Y382148D01*
X203348Y381148D01*
X212345Y376150D02*
X208346D01*
X212345Y380149D01*
Y381148D01*
X211346Y382148D01*
X209346D01*
X208346Y381148D01*
X280349D02*
X279349Y382148D01*
X277350D01*
X276350Y381148D01*
Y377150D01*
X277350Y376150D01*
X279349D01*
X280349Y377150D01*
X282348Y376150D02*
X284347D01*
X283348D01*
Y382148D01*
X282348Y381148D01*
X287346Y376150D02*
X289346D01*
X288346D01*
Y382148D01*
X287346Y381148D01*
X258349D02*
X257349Y382148D01*
X255350D01*
X254350Y381148D01*
Y377150D01*
X255350Y376150D01*
X257349D01*
X258349Y377150D01*
X260348Y376150D02*
X262347D01*
X261348D01*
Y382148D01*
X260348Y381148D01*
X265346D02*
X266346Y382148D01*
X268345D01*
X269345Y381148D01*
Y377150D01*
X268345Y376150D01*
X266346D01*
X265346Y377150D01*
Y381148D01*
X494399Y323398D02*
X493399Y324398D01*
X491400D01*
X490400Y323398D01*
Y319400D01*
X491400Y318400D01*
X493399D01*
X494399Y319400D01*
X496398D02*
X497398Y318400D01*
X499397D01*
X500397Y319400D01*
Y323398D01*
X499397Y324398D01*
X497398D01*
X496398Y323398D01*
Y322399D01*
X497398Y321399D01*
X500397D01*
X476599Y414598D02*
X475599Y415598D01*
X473600D01*
X472600Y414598D01*
Y410600D01*
X473600Y409600D01*
X475599D01*
X476599Y410600D01*
X478598Y414598D02*
X479598Y415598D01*
X481597D01*
X482597Y414598D01*
Y413599D01*
X481597Y412599D01*
X482597Y411599D01*
Y410600D01*
X481597Y409600D01*
X479598D01*
X478598Y410600D01*
Y411599D01*
X479598Y412599D01*
X478598Y413599D01*
Y414598D01*
X479598Y412599D02*
X481597D01*
X494399Y333898D02*
X493399Y334898D01*
X491400D01*
X490400Y333898D01*
Y329900D01*
X491400Y328900D01*
X493399D01*
X494399Y329900D01*
X496398Y334898D02*
X500397D01*
Y333898D01*
X496398Y329900D01*
Y328900D01*
X260399Y391598D02*
X259399Y392598D01*
X257400D01*
X256400Y391598D01*
Y387600D01*
X257400Y386600D01*
X259399D01*
X260399Y387600D01*
X266397Y392598D02*
X264397Y391598D01*
X262398Y389599D01*
Y387600D01*
X263398Y386600D01*
X265397D01*
X266397Y387600D01*
Y388599D01*
X265397Y389599D01*
X262398D01*
X469399Y357098D02*
X468399Y358098D01*
X466400D01*
X465400Y357098D01*
Y353100D01*
X466400Y352100D01*
X468399D01*
X469399Y353100D01*
X475397Y358098D02*
X471398D01*
Y355099D01*
X473397Y356099D01*
X474397D01*
X475397Y355099D01*
Y353100D01*
X474397Y352100D01*
X472398D01*
X471398Y353100D01*
X475399Y287098D02*
X474399Y288098D01*
X472400D01*
X471400Y287098D01*
Y283100D01*
X472400Y282100D01*
X474399D01*
X475399Y283100D01*
X480397Y282100D02*
Y288098D01*
X477398Y285099D01*
X481397D01*
X474499Y303998D02*
X473499Y304998D01*
X471500D01*
X470500Y303998D01*
Y300000D01*
X471500Y299000D01*
X473499D01*
X474499Y300000D01*
X476498Y303998D02*
X477498Y304998D01*
X479497D01*
X480497Y303998D01*
Y302999D01*
X479497Y301999D01*
X478497D01*
X479497D01*
X480497Y300999D01*
Y300000D01*
X479497Y299000D01*
X477498D01*
X476498Y300000D01*
X607899Y419098D02*
X606899Y420098D01*
X604900D01*
X603900Y419098D01*
Y415100D01*
X604900Y414100D01*
X606899D01*
X607899Y415100D01*
X613897Y414100D02*
X609898D01*
X613897Y418099D01*
Y419098D01*
X612897Y420098D01*
X610898D01*
X609898Y419098D01*
X345399Y561598D02*
X344399Y562598D01*
X342400D01*
X341400Y561598D01*
Y557600D01*
X342400Y556600D01*
X344399D01*
X345399Y557600D01*
X347398Y556600D02*
X349397D01*
X348398D01*
Y562598D01*
X347398Y561598D01*
D46*
X417618Y328898D02*
G03*
X417618Y328898I-492J0D01*
G01*
X590307Y331358D02*
G03*
X590307Y331358I-492J0D01*
G01*
Y293358D02*
G03*
X590307Y293358I-492J0D01*
G01*
X310850Y302685D02*
G03*
X310850Y302685I-492J0D01*
G01*
D47*
X463126Y304000D02*
G03*
X478874Y304000I7874J0D01*
G01*
Y324000D02*
G03*
X463126Y324000I-7874J0D01*
G01*
X478874Y304000D02*
Y324000D01*
X463126Y304000D02*
Y324000D01*
D48*
X319650Y531343D02*
G03*
X319644Y519464I468J-5939D01*
G01*
X319650Y531343D02*
Y543547D01*
Y512839D02*
Y519531D01*
X288547Y512839D02*
X319650D01*
X288547D02*
Y543547D01*
X319650D01*
D49*
X496161Y244274D02*
G03*
X482360Y245232I-7161J-3274D01*
G01*
Y236768D02*
G03*
X496161Y237726I6640J4232D01*
G01*
X590406Y350295D02*
G03*
X590406Y334705I-5906J-7795D01*
G01*
X222226Y366661D02*
G03*
X221268Y352860I3274J-7161D01*
G01*
X229732D02*
G03*
X228774Y366661I-4232J6640D01*
G01*
X590406Y312295D02*
G03*
X590406Y296705I-5906J-7795D01*
G01*
X329295Y302095D02*
G03*
X313705Y302095I-7795J5906D01*
G01*
X696500Y286000D02*
X699500D01*
X696500D02*
Y306000D01*
X702500D01*
Y286000D02*
Y306000D01*
X699500Y286000D02*
X702500D01*
X447559Y289134D02*
Y330866D01*
X431024Y289134D02*
Y294827D01*
Y325173D02*
Y330866D01*
Y289134D02*
X449528D01*
X431024Y330866D02*
X449528D01*
Y289134D02*
Y330866D01*
X412551Y406370D02*
X414126Y407945D01*
X421095D01*
X446527D02*
X455071D01*
Y399401D02*
Y407945D01*
Y365425D02*
Y373969D01*
X446527Y365425D02*
X455071D01*
X412551D02*
X421095D01*
X412551D02*
Y373969D01*
Y399401D02*
Y406370D01*
X580000Y372500D02*
Y375500D01*
X600000D01*
Y369500D02*
Y375500D01*
X580000Y369500D02*
X600000D01*
X580000D02*
Y372500D01*
X528000Y119500D02*
Y129500D01*
X488000Y119500D02*
X528000D01*
X488000Y129500D02*
X528000D01*
X488000Y119500D02*
Y129500D01*
X321224Y486067D02*
Y556933D01*
X284610D02*
X321224D01*
X250358D02*
X255870D01*
X284610Y486067D02*
X321224D01*
X250358Y491579D02*
Y556933D01*
Y491579D02*
X255870Y486067D01*
X732500Y325500D02*
X742500D01*
Y305500D02*
Y325500D01*
X732500Y305500D02*
X742500D01*
X732500D02*
Y325500D01*
X732000Y295000D02*
X742000D01*
Y275000D02*
Y295000D01*
X732000Y275000D02*
X742000D01*
X732000D02*
Y295000D01*
X422976Y217102D02*
X445024D01*
X422976D02*
Y254898D01*
X445024Y217102D02*
Y254898D01*
X626500Y320500D02*
Y323500D01*
X606500Y320500D02*
X626500D01*
X606500D02*
Y326500D01*
X626500D01*
Y323500D02*
Y326500D01*
X626000Y343000D02*
Y346000D01*
X606000Y343000D02*
X626000D01*
X606000D02*
Y349000D01*
X626000D01*
Y346000D02*
Y349000D01*
X590406Y334705D02*
Y350295D01*
X591000Y228500D02*
Y231500D01*
X611000D01*
Y225500D02*
Y231500D01*
X591000Y225500D02*
X611000D01*
X591000D02*
Y228500D01*
X329500Y342500D02*
Y345500D01*
X349500D01*
Y339500D02*
Y345500D01*
X329500Y339500D02*
X349500D01*
X329500D02*
Y342500D01*
X549000Y364000D02*
Y367000D01*
X529000Y364000D02*
X549000D01*
X529000D02*
Y370000D01*
X549000D01*
Y367000D02*
Y370000D01*
X529000Y382500D02*
Y385500D01*
X549000D01*
Y379500D02*
Y385500D01*
X529000Y379500D02*
X549000D01*
X529000D02*
Y382500D01*
X595500Y292000D02*
X598051Y294551D01*
X628449D02*
X631500Y291500D01*
Y283449D02*
Y291500D01*
X595500Y283449D02*
Y292000D01*
X598051Y294551D02*
X628449D01*
X595500Y283449D02*
X631500D01*
X350500Y318000D02*
Y321000D01*
X330500Y318000D02*
X350500D01*
X330500D02*
Y324000D01*
X350500D01*
Y321000D02*
Y324000D01*
X590406Y296705D02*
Y312295D01*
X592000Y248500D02*
Y251500D01*
X612000D01*
Y245500D02*
Y251500D01*
X592000Y245500D02*
X612000D01*
X592000D02*
Y248500D01*
X592500Y269000D02*
Y272000D01*
X612500D01*
Y266000D02*
Y272000D01*
X592500Y266000D02*
X612500D01*
X592500D02*
Y269000D01*
X288433Y315488D02*
Y326512D01*
X267567Y315488D02*
X288433D01*
X267567Y326512D02*
X288433D01*
X313705Y302095D02*
X329295D01*
X567000Y437500D02*
X570000D01*
Y417500D02*
Y437500D01*
X564000Y417500D02*
X570000D01*
X564000D02*
Y437500D01*
X567000D01*
X357500Y307500D02*
Y310500D01*
X377500D01*
Y304500D02*
Y310500D01*
X357500Y304500D02*
X377500D01*
X357500D02*
Y307500D01*
X358000Y295500D02*
Y298500D01*
X378000D01*
Y292500D02*
Y298500D01*
X358000Y292500D02*
X378000D01*
X358000D02*
Y295500D01*
X288933Y294488D02*
Y305512D01*
X268067Y294488D02*
X288933D01*
X268067Y305512D02*
X288933D01*
X538500Y417500D02*
X541500D01*
X538500D02*
Y437500D01*
X544500D01*
Y417500D02*
Y437500D01*
X541500Y417500D02*
X544500D01*
X526000D02*
X529000D01*
X526000D02*
Y437500D01*
X532000D01*
Y417500D02*
Y437500D01*
X529000Y417500D02*
X532000D01*
X513500D02*
X516500D01*
X513500D02*
Y437500D01*
X519500D01*
Y417500D02*
Y437500D01*
X516500Y417500D02*
X519500D01*
X176000Y541000D02*
X212000D01*
Y517500D02*
Y541000D01*
Y517500D02*
X217000D01*
Y507500D02*
Y517500D01*
X212500Y507500D02*
X217000D01*
X212500Y501500D02*
Y507500D01*
X176000Y501500D02*
X212500D01*
X176000D02*
Y541000D01*
X528500Y352000D02*
Y355000D01*
X548500D01*
Y349000D02*
Y355000D01*
X528500Y349000D02*
X548500D01*
X528500D02*
Y352000D01*
X665102Y329476D02*
Y351524D01*
X702898D01*
X665102Y329476D02*
X702898D01*
X551000Y417500D02*
X554000D01*
X551000D02*
Y437500D01*
X557000D01*
Y417500D02*
Y437500D01*
X554000Y417500D02*
X557000D01*
X253508Y491579D02*
X254820D01*
X254164D01*
Y495514D01*
X253508Y494859D01*
X254951Y556932D02*
X253639Y556276D01*
X252327Y554964D01*
Y553652D01*
X252983Y552996D01*
X254295D01*
X254951Y553652D01*
Y554308D01*
X254295Y554964D01*
X252327D01*
D50*
X682000Y296000D02*
G03*
X682000Y315000I0J9500D01*
G01*
X558000Y237500D02*
G03*
X558000Y256500I0J9500D01*
G01*
X341500Y539000D02*
X347500D01*
X344500Y541000D02*
Y545000D01*
Y535000D02*
Y539000D01*
X341500Y541000D02*
X347500D01*
X483000Y272000D02*
Y278000D01*
X485000Y275000D02*
X489000D01*
X479000D02*
X483000D01*
X485000Y272000D02*
Y278000D01*
X615500Y404000D02*
Y410000D01*
X617500Y407000D02*
X621500D01*
X611500D02*
X615500D01*
X617500Y404000D02*
Y410000D01*
X477000Y342000D02*
Y348000D01*
X479000Y345000D02*
X483000D01*
X473000D02*
X477000D01*
X479000Y342000D02*
Y348000D01*
X504000Y308500D02*
Y314500D01*
X498000Y311500D02*
X502000D01*
X504000D02*
X508000D01*
X502000Y308500D02*
Y314500D01*
X268000Y376500D02*
Y382500D01*
X270000Y379500D02*
X274000D01*
X264000D02*
X268000D01*
X270000Y376500D02*
Y382500D01*
X504000Y319000D02*
Y325000D01*
X498000Y322000D02*
X502000D01*
X504000D02*
X508000D01*
X502000Y319000D02*
Y325000D01*
X472500Y394000D02*
X478500D01*
X475500Y388000D02*
Y392000D01*
Y394000D02*
Y398000D01*
X472500Y392000D02*
X478500D01*
X276500Y358500D02*
X282500D01*
X279500Y360500D02*
Y364500D01*
Y354500D02*
Y358500D01*
X276500Y360500D02*
X282500D01*
X254500Y358500D02*
X260500D01*
X257500Y360500D02*
Y364500D01*
Y354500D02*
Y358500D01*
X254500Y360500D02*
X260500D01*
X644500Y238000D02*
X650500D01*
X647500Y240000D02*
Y244000D01*
Y234000D02*
Y238000D01*
X644500Y240000D02*
X650500D01*
X636500Y293500D02*
X672000D01*
Y317500D01*
X636500D02*
X672000D01*
Y296000D02*
X682000D01*
X672000Y315000D02*
X682000D01*
X636500Y293500D02*
Y298000D01*
X646500D01*
Y313000D01*
X636500D02*
X646500D01*
X636500D02*
Y317500D01*
X197500Y358500D02*
X203500D01*
X200500Y360500D02*
Y364500D01*
Y354500D02*
Y358500D01*
X197500Y360500D02*
X203500D01*
X512500Y235000D02*
X548000D01*
Y259000D01*
X512500D02*
X548000D01*
Y237500D02*
X558000D01*
X548000Y256500D02*
X558000D01*
X512500Y235000D02*
Y239500D01*
X522500D01*
Y254500D01*
X512500D02*
X522500D01*
X512500D02*
Y259000D01*
X504000Y298500D02*
Y304500D01*
X498000Y301500D02*
X502000D01*
X504000D02*
X508000D01*
X502000Y298500D02*
Y304500D01*
D51*
X616685Y280043D02*
Y278075D01*
Y279059D01*
X622589D01*
X621605Y280043D01*
X611691D02*
X612675Y279059D01*
Y277092D01*
X611691Y276108D01*
X610707D01*
X609723Y277092D01*
Y278075D01*
Y277092D01*
X608740Y276108D01*
X607756D01*
X606772Y277092D01*
Y279059D01*
X607756Y280043D01*
D52*
X434000Y253716D02*
D03*
D53*
X268748Y321023D02*
D03*
X269244Y300059D02*
D03*
D54*
X701717Y340500D02*
D03*
M02*
